<?xml version="1.0" standalone="no"?>
<!DOCTYPE svg PUBLIC "-//W3C//DTD SVG 20010904//EN"
 "http://www.w3.org/TR/2001/REC-SVG-20010904/DTD/svg10.dtd">
<svg version="1.0" xmlns="http://www.w3.org/2000/svg"
 width="180.000000pt" height="180.000000pt" viewBox="0 0 180.000000 180.000000"
 preserveAspectRatio="xMidYMid meet">
<metadata>
Created by potrace 1.14, written by Peter Selinger 2001-2017
</metadata>
<g transform="translate(0.000000,180.000000) scale(0.100000,-0.100000)"
fill="#000000" stroke="none">
<path d="M10 900 l0 -380 260 0 260 0 0 100 0 100 -140 0 -140 0 0 40 0 40
140 0 140 0 0 100 0 100 -140 0 -140 0 0 40 0 40 270 0 270 0 0 100 0 100
-390 0 -390 0 0 -380z"/>
<path d="M910 1165 c-63 -63 -116 -111 -118 -105 -2 6 -51 10 -123 10 l-119 0
0 -275 0 -275 120 0 120 0 0 122 0 123 123 -123 c67 -67 128 -122 135 -122 9
0 12 35 12 137 l0 137 -52 53 -52 53 99 101 100 100 171 -3 c183 -3 204 -9
204 -54 0 -43 -24 -54 -121 -54 l-89 0 0 45 0 45 -83 0 c-83 0 -83 0 -120 -38
l-37 -38 0 -243 0 -242 268 3 c258 3 268 4 312 27 95 50 130 105 130 206 0 38
-6 78 -14 94 -16 30 -80 91 -97 91 -5 0 6 14 25 30 88 78 66 218 -44 280 -45
25 -46 25 -340 28 l-295 3 -115 -116z m625 -339 c26 -19 26 -83 0 -102 -13
-10 -49 -14 -117 -14 l-98 0 0 65 0 65 98 0 c68 0 104 -4 117 -14z"/>
</g>
</svg>
